<svg width="19" height="24" viewBox="0 0 19 24" fill="none" xmlns="http://www.w3.org/2000/svg">
<path d="M12.5427 16C12.3577 16.0005 12.1784 15.9191 12.036 15.77L7.28599 10.77C7.12432 10.6003 7.02265 10.3564 7.00335 10.092C6.98405 9.82753 7.0487 9.56425 7.18307 9.36003C7.31745 9.15581 7.51055 9.02739 7.71988 9.00301C7.92922 8.97863 8.13765 9.06029 8.29932 9.23003L12.5427 13.71L16.786 9.39003C16.867 9.30697 16.9601 9.24493 17.0602 9.2075C17.1602 9.17007 17.2651 9.15798 17.3688 9.17192C17.4725 9.18586 17.5731 9.22555 17.6646 9.28873C17.7562 9.3519 17.8369 9.4373 17.9022 9.54003C17.9747 9.64285 18.0296 9.76348 18.0635 9.89435C18.0974 10.0252 18.1095 10.1635 18.0991 10.3006C18.0887 10.4377 18.056 10.5705 18.0031 10.6909C17.9501 10.8112 17.8781 10.9165 17.7914 11L13.0414 15.83C12.8949 15.9555 12.7193 16.0154 12.5427 16Z" fill="#B4B4B4"/>
</svg>
