<svg width="45" height="45" viewBox="0 0 45 45" fill="none" xmlns="http://www.w3.org/2000/svg">
<path fill-rule="evenodd" clip-rule="evenodd" d="M33.75 22.5001C33.75 22.1271 33.6018 21.7694 33.3381 21.5057C33.0744 21.242 32.7167 21.0938 32.3438 21.0938H16.0509L22.0894 15.0582C22.3534 14.7941 22.5018 14.436 22.5018 14.0626C22.5018 13.6891 22.3534 13.331 22.0894 13.0669C21.8253 12.8029 21.4672 12.6545 21.0938 12.6545C20.7203 12.6545 20.3622 12.8029 20.0981 13.0669L11.6606 21.5044C11.5297 21.6351 11.4258 21.7903 11.3549 21.9611C11.284 22.1319 11.2475 22.3151 11.2475 22.5001C11.2475 22.685 11.284 22.8682 11.3549 23.039C11.4258 23.2099 11.5297 23.3651 11.6606 23.4957L20.0981 31.9332C20.3622 32.1972 20.7203 32.3456 21.0938 32.3456C21.4672 32.3456 21.8253 32.1972 22.0894 31.9332C22.3534 31.6691 22.5018 31.311 22.5018 30.9376C22.5018 30.5641 22.3534 30.206 22.0894 29.9419L16.0509 23.9063H32.3438C32.7167 23.9063 33.0744 23.7582 33.3381 23.4944C33.6018 23.2307 33.75 22.873 33.75 22.5001Z" fill="#A1A1A1"/>
</svg>
