<svg width="20" height="15" viewBox="0 0 20 15" fill="none" xmlns="http://www.w3.org/2000/svg">
<path d="M1.25 6.42934H16.075L11.5375 1.75833C11.3253 1.53954 11.2232 1.25748 11.2537 0.974193C11.2842 0.690905 11.4447 0.429595 11.7 0.247748C11.9553 0.0659016 12.2844 -0.0215855 12.6149 0.00453334C12.9454 0.0306521 13.2503 0.168237 13.4625 0.387021L19.7125 6.81502C19.7545 6.86615 19.7922 6.91986 19.825 6.97572C19.825 7.02928 19.825 7.06142 19.9125 7.11499C19.9692 7.23783 19.9988 7.36859 20 7.50067C19.9988 7.63275 19.9692 7.76351 19.9125 7.88635C19.9125 7.93992 19.9125 7.97206 19.825 8.02562C19.7922 8.08148 19.7545 8.13519 19.7125 8.18632L13.4625 14.6143C13.345 14.7353 13.1978 14.8325 13.0314 14.8992C12.8651 14.9658 12.6836 15.0003 12.5 15C12.2079 15.0005 11.9249 14.9133 11.7 14.7536C11.5734 14.6637 11.4688 14.5532 11.3921 14.4286C11.3154 14.3039 11.2682 14.1675 11.2531 14.0272C11.238 13.8869 11.2553 13.7454 11.3041 13.6108C11.3529 13.4763 11.4322 13.3513 11.5375 13.243L16.075 8.572H1.25C0.91848 8.572 0.600536 8.45913 0.366116 8.25822C0.131695 8.0573 0 7.7848 0 7.50067C0 7.21653 0.131695 6.94404 0.366116 6.74312C0.600536 6.54221 0.91848 6.42934 1.25 6.42934Z" fill="black"/>
</svg>
