<svg width="80" height="80" viewBox="0 0 80 80" fill="none" xmlns="http://www.w3.org/2000/svg">
<g opacity="0.1">
<path d="M40.008 17.72C40.0447 17.4596 40.1325 17.209 40.2663 16.9826C40.4 16.7562 40.5771 16.5583 40.7874 16.4004C40.9977 16.2425 41.237 16.1276 41.4918 16.0624C41.7465 15.9971 42.0116 15.9827 42.272 16.02C44.717 16.371 46.9827 17.504 48.7304 19.2495C50.4781 20.9951 51.6139 23.2594 51.9679 25.704C52.0055 25.964 51.9915 26.2289 51.9267 26.4835C51.8619 26.7381 51.7476 26.9774 51.5903 27.1878C51.2726 27.6128 50.7991 27.8941 50.2739 27.97C49.7488 28.0458 49.2151 27.91 48.7901 27.5923C48.3652 27.2746 48.0838 26.8011 48.008 26.276C47.7776 24.6873 47.0396 23.2158 45.9042 22.0811C44.7687 20.9464 43.2967 20.2093 41.708 19.98C41.1829 19.9056 40.7088 19.6258 40.39 19.202C40.0712 18.7782 39.9338 18.2451 40.008 17.72Z" fill="#3064EB"/>
<path d="M20 28C20 22.6957 22.1071 17.6086 25.8579 13.8579C29.6086 10.1071 34.6957 8 40 8C45.3043 8 50.3914 10.1071 54.1421 13.8579C57.8929 17.6086 60 22.6957 60 28C59.965 34.9894 57.7284 41.7901 53.608 47.436C50.444 51.732 46.26 55.004 42 55.808V56C42 57.0609 42.4214 58.0783 43.1716 58.8284C43.9217 59.5786 44.9391 60 46 60H56C58.1217 60 60.1566 60.8429 61.6569 62.3431C63.1571 63.8434 64 65.8783 64 68V70C64 70.5304 63.7893 71.0391 63.4142 71.4142C63.0391 71.7893 62.5304 72 62 72C61.4696 72 60.9609 71.7893 60.5858 71.4142C60.2107 71.0391 60 70.5304 60 70V68C60 66.9391 59.5786 65.9217 58.8284 65.1716C58.0783 64.4214 57.0609 64 56 64H46C43.8783 64 41.8434 63.1571 40.3431 61.6569C38.8429 60.1566 38 58.1217 38 56V55.808C33.74 55.008 29.56 51.74 26.392 47.444C22.2695 41.7962 20.0328 34.9923 20 28ZM40 12C35.7565 12 31.6869 13.6857 28.6863 16.6863C25.6857 19.6869 24 23.7565 24 28C24 34.548 26.34 40.64 29.608 45.072C32.948 49.596 36.928 52 40 52C43.072 52 47.052 49.592 50.392 45.064C54.0046 40.1049 55.9665 34.1354 56 28C56 23.7565 54.3143 19.6869 51.3137 16.6863C48.3131 13.6857 44.2435 12 40 12Z" fill="#3064EB"/>
</g>
</svg>
