<svg width="102" height="102" viewBox="0 0 102 102" fill="none" xmlns="http://www.w3.org/2000/svg">
<ellipse cx="51" cy="62.7691" rx="14.3846" ry="14.3846" fill="white"/>
<path d="M76.5 34H72.25V25.5C72.25 13.77 62.73 4.25 51 4.25C39.27 4.25 29.75 13.77 29.75 25.5V34H25.5C20.825 34 17 37.825 17 42.5V85C17 89.675 20.825 93.5 25.5 93.5H76.5C81.175 93.5 85 89.675 85 85V42.5C85 37.825 81.175 34 76.5 34ZM51 72.25C46.325 72.25 42.5 68.425 42.5 63.75C42.5 59.075 46.325 55.25 51 55.25C55.675 55.25 59.5 59.075 59.5 63.75C59.5 68.425 55.675 72.25 51 72.25ZM64.175 34H37.825V25.5C37.825 18.2325 43.7325 12.325 51 12.325C58.2675 12.325 64.175 18.2325 64.175 25.5V34Z" fill="#DBE0F3"/>
</svg>
