<svg width="112" height="112" viewBox="0 0 112 112" fill="none" xmlns="http://www.w3.org/2000/svg">
<ellipse cx="56" cy="58.6667" rx="34.6667" ry="34.6667" fill="white"/>
<path d="M101.095 37.0126C98.6414 31.1558 95.0714 25.8325 90.5844 21.3392C86.1107 16.838 80.7966 13.2594 74.9437 10.8064C68.948 8.28123 62.5058 6.98685 56 7.0001H55.7812C49.1641 7.03291 42.7656 8.34541 36.7391 10.9267C30.9364 13.4048 25.6722 16.9898 21.2406 21.4814C16.797 25.9646 13.268 31.2693 10.85 37.1001C8.34 43.1634 7.06818 49.6676 7.10937 56.2298C7.14218 63.8204 8.95781 71.3564 12.3484 78.0939V94.7189C12.3484 97.497 14.6016 99.7501 17.3687 99.7501H33.9719C40.7408 103.166 48.2104 104.963 55.7922 105H56.0219C62.5625 105 68.8953 103.731 74.8672 101.249C80.6905 98.8248 85.9847 95.2878 90.4531 90.8361C94.9594 86.3626 98.5031 81.1345 100.986 75.3048C103.556 69.2673 104.869 62.847 104.902 56.2189C104.923 49.5579 103.633 43.0939 101.095 37.0126ZM34.1687 61.2501C31.2812 61.2501 28.9297 58.8985 28.9297 56.0001C28.9297 53.1017 31.2812 50.7501 34.1687 50.7501C37.0562 50.7501 39.4078 53.1017 39.4078 56.0001C39.4078 58.8985 37.0672 61.2501 34.1687 61.2501ZM56 61.2501C53.1125 61.2501 50.7609 58.8985 50.7609 56.0001C50.7609 53.1017 53.1125 50.7501 56 50.7501C58.8875 50.7501 61.2391 53.1017 61.2391 56.0001C61.2391 58.8985 58.8875 61.2501 56 61.2501ZM77.8312 61.2501C74.9437 61.2501 72.5922 58.8985 72.5922 56.0001C72.5922 53.1017 74.9437 50.7501 77.8312 50.7501C80.7188 50.7501 83.0703 53.1017 83.0703 56.0001C83.0703 58.8985 80.7188 61.2501 77.8312 61.2501Z" fill="#B8C2E8"/>
</svg>
