<svg width="20" height="14" viewBox="0 0 20 14" fill="none" xmlns="http://www.w3.org/2000/svg">
<path d="M19.2262 12.8638C19.2262 13.368 18.8174 13.7759 18.3142 13.7759H10.9717C10.7298 13.7759 10.4978 13.6798 10.3267 13.5087C10.1557 13.3377 10.0596 13.1057 10.0596 12.8638C10.0596 12.6219 10.1557 12.3899 10.3267 12.2189C10.4978 12.0478 10.7298 11.9517 10.9717 11.9517H18.3142C18.8183 11.9517 19.2262 12.3596 19.2262 12.8638Z" fill="#3A3A3A"/>
<path d="M19.2263 7.35921C19.2263 7.86338 18.8174 8.27129 18.3142 8.27129H1.80503C1.56313 8.27129 1.33114 8.1752 1.16009 8.00415C0.989039 7.8331 0.892944 7.60111 0.892944 7.35921C0.892944 7.11731 0.989039 6.88532 1.16009 6.71427C1.33114 6.54322 1.56313 6.44713 1.80503 6.44713H18.3142C18.8184 6.44713 19.2263 6.85596 19.2263 7.35921Z" fill="#3A3A3A"/>
<path d="M18.3142 2.76672C18.5561 2.76672 18.7881 2.67062 18.9591 2.49957C19.1302 2.32853 19.2263 2.09653 19.2263 1.85463C19.2263 1.61273 19.1302 1.38074 18.9591 1.20969C18.7881 1.03864 18.5561 0.942551 18.3142 0.942551H7.30503C7.18525 0.942551 7.06665 0.966142 6.95599 1.01198C6.84533 1.05782 6.74478 1.125 6.66009 1.20969C6.57539 1.29439 6.50821 1.39494 6.46237 1.50559C6.41654 1.61625 6.39294 1.73486 6.39294 1.85463C6.39294 1.97441 6.41654 2.09301 6.46237 2.20367C6.50821 2.31433 6.57539 2.41488 6.66009 2.49957C6.74478 2.58427 6.84533 2.65145 6.95599 2.69729C7.06665 2.74313 7.18525 2.76672 7.30503 2.76672H18.3142Z" fill="#3A3A3A"/>
</svg>
