<svg width="25" height="25" viewBox="0 0 25 25" fill="none" xmlns="http://www.w3.org/2000/svg">
<path d="M8.09583 2.54059L9.21667 2.18226C10.2687 1.84684 11.3906 2.38955 11.8417 3.44996L12.7365 5.56246C13.126 6.48226 12.9104 7.56455 12.201 8.23746L10.2281 10.1104C10.349 11.2312 10.726 12.3343 11.3573 13.4198C11.9571 14.47 12.7615 15.3892 13.7229 16.1229L16.0927 15.3312C16.9917 15.0323 17.9698 15.377 18.5198 16.1864L19.8042 18.0718C20.4448 19.0135 20.3302 20.3114 19.5354 21.1093L18.6833 21.9646C17.8354 22.8156 16.624 23.125 15.5042 22.775C12.8594 21.95 10.4281 19.501 8.20937 15.4281C5.9875 11.3489 5.20312 7.88642 5.85729 5.04476C6.13229 3.84892 6.98333 2.8958 8.09583 2.54059Z" fill="#3064EB"/>
</svg>
