<svg width="92" height="22" viewBox="0 0 92 22" fill="none" xmlns="http://www.w3.org/2000/svg">
<path opacity="0.4" d="M86.7169 14.4907C84.0968 11.953 81.5709 9.52696 79.0574 7.09444C78.5537 6.61138 78.1989 6.27002 77.684 5.57395C77.2953 5.0605 76.4984 3.9562 77.2289 3.70927C77.8563 3.5594 78.3233 3.52179 79.2945 4.28786C81.7908 6.27713 83.9207 8.57278 86.0482 10.8405C87.9253 12.844 89.321 14.3967 90.8595 16.2547C91.578 17.1225 91.3044 17.76 90.2536 18.1583C89.3103 18.5155 88.3494 18.8963 87.3472 19.0944C83.7383 19.8254 80.1223 20.4725 76.4962 21.1541C76.0464 21.2411 75.7013 21.3323 75.1494 21.3701C74.4802 21.4103 73.9956 21.4716 73.8267 20.9319C73.6602 20.4201 74.4263 20.0526 74.8539 19.9333C78.4025 18.8689 85.7641 16.7781 86.1272 16.5901C84.1033 15.7274 82.2513 14.8923 80.3415 14.1455C67.0117 8.9997 53.362 4.71969 38.6761 3.29538C27.0512 2.1677 15.4611 2.24716 3.88142 3.86734C3.19691 3.95924 2.49523 4.00167 1.8186 4.03115C0.902199 4.08267 0.416148 3.9697 0.356279 3.56312C0.363614 2.78627 0.976233 2.61492 1.45158 2.44172C2.39485 2.08457 3.43691 1.89505 4.44652 1.70775C17.9804 -0.676371 31.5123 -0.331902 45.0347 1.54904C58.9137 3.47868 71.6956 8.00377 84.0673 13.4852C84.7069 13.7958 86.3728 14.4355 86.7169 14.4907Z" fill="white"/>
</svg>
