<svg width="92" height="22" viewBox="0 0 92 22" fill="none" xmlns="http://www.w3.org/2000/svg">
<path opacity="0.4" d="M86.7169 7.44238C84.0968 9.98011 81.5708 12.4061 79.0574 14.8387C78.5537 15.3217 78.1988 15.6631 77.684 16.3592C77.2953 16.8726 76.4984 17.9769 77.2288 18.2238C77.8563 18.3737 78.3233 18.4113 79.2945 17.6452C81.7907 15.656 83.9206 13.3603 86.0482 11.0926C87.9253 9.08909 89.321 7.53637 90.8595 5.6784C91.578 4.81062 91.3044 4.17306 90.2535 3.77479C89.3103 3.41764 88.3494 3.03678 87.3472 2.83874C83.7382 2.10771 80.1223 1.4606 76.4962 0.779032C76.0463 0.691962 75.7013 0.600822 75.1494 0.563019C74.4802 0.522802 73.9956 0.461475 73.8267 1.00123C73.6601 1.513 74.4262 1.88052 74.8538 1.99982C78.4025 3.06425 85.7641 5.15497 86.1272 5.34299C84.1032 6.20571 82.2513 7.04085 80.3414 7.78763C67.0116 12.9334 53.362 17.2134 38.6761 18.6377C27.0511 19.7654 15.4611 19.6859 3.88139 18.0658C3.19688 17.9739 2.4952 17.9314 1.81857 17.902C0.902168 17.8504 0.416117 17.9634 0.356248 18.37C0.363583 19.1468 0.976203 19.3182 1.45155 19.4914C2.39482 19.8485 3.43688 20.0381 4.44649 20.2254C17.9804 22.6095 31.5123 22.265 45.0346 20.3841C58.9136 18.4544 71.6956 13.9293 84.0673 8.4479C84.7068 8.13729 86.3728 7.49757 86.7169 7.44238Z" fill="white"/>
</svg>
