<svg width="48" height="48" viewBox="0 0 48 48" fill="none" xmlns="http://www.w3.org/2000/svg">
<path d="M24.1 40C19.6667 40 15.8917 38.4417 12.775 35.325C9.65834 32.2083 8.10001 28.4333 8.10001 24C8.10001 19.9333 9.42501 16.4167 12.075 13.45C14.725 10.4833 18 8.73335 21.9 8.20001H22.2C21.6 9.16668 21.1333 10.2333 20.8 11.4C20.4667 12.5667 20.3 13.7667 20.3 15C20.3 18.5667 21.55 21.5917 24.05 24.075C26.55 26.5583 29.5667 27.8 33.1 27.8C34.3333 27.8 35.5333 27.65 36.7 27.35C37.8667 27.05 38.9333 26.6167 39.9 26.05C39.8667 26.15 39.8583 26.2083 39.875 26.225L39.9 26.25C39.3667 30.15 37.6167 33.4167 34.65 36.05C31.6833 38.6833 28.1667 40 24.1 40Z" fill="white"/>
</svg>
