<svg width="60" height="60" viewBox="0 0 60 60" fill="none" xmlns="http://www.w3.org/2000/svg">
<rect x="3.05176e-05" y="-0.00012207" width="60" height="60" rx="10" fill="#3064EB"/>
<g clip-path="url(#clip0_14_19)">
<path d="M24 29.9999C24 30.5303 23.7893 31.039 23.4142 31.4141C23.0392 31.7892 22.5305 31.9999 22 31.9999C21.4696 31.9999 20.9609 31.7892 20.5858 31.4141C20.2107 31.039 20 30.5303 20 29.9999C20 29.4694 20.2107 28.9607 20.5858 28.5857C20.9609 28.2106 21.4696 27.9999 22 27.9999C22.5305 27.9999 23.0392 28.2106 23.4142 28.5857C23.7893 28.9607 24 29.4694 24 29.9999V29.9999ZM32 29.9999C32 30.5303 31.7893 31.039 31.4142 31.4141C31.0392 31.7892 30.5305 31.9999 30 31.9999C29.4696 31.9999 28.9609 31.7892 28.5858 31.4141C28.2107 31.039 28 30.5303 28 29.9999C28 29.4694 28.2107 28.9607 28.5858 28.5857C28.9609 28.2106 29.4696 27.9999 30 27.9999C30.5305 27.9999 31.0392 28.2106 31.4142 28.5857C31.7893 28.9607 32 29.4694 32 29.9999ZM38 31.9999C38.5305 31.9999 39.0392 31.7892 39.4142 31.4141C39.7893 31.039 40 30.5303 40 29.9999C40 29.4694 39.7893 28.9607 39.4142 28.5857C39.0392 28.2106 38.5305 27.9999 38 27.9999C37.4696 27.9999 36.9609 28.2106 36.5858 28.5857C36.2107 28.9607 36 29.4694 36 29.9999C36 30.5303 36.2107 31.039 36.5858 31.4141C36.9609 31.7892 37.4696 31.9999 38 31.9999V31.9999Z" fill="white"/>
<path d="M18.33 45.6059L18.37 45.5979C22.03 44.8719 24.266 43.9139 25.306 43.3879C26.8372 43.7963 28.4153 44.002 30 43.9999C38.836 43.9999 46 37.7319 46 29.9999C46 22.2679 38.836 15.9999 30 15.9999C21.164 15.9999 14 22.2679 14 29.9999C14 33.5199 15.486 36.7399 17.94 39.1999C17.7683 40.7801 17.4167 42.3355 16.892 43.8359L16.886 43.8579C16.7369 44.2876 16.5742 44.7125 16.398 45.1319C16.24 45.5039 16.546 45.9199 16.944 45.8559C17.4074 45.7801 17.8694 45.6967 18.33 45.6059V45.6059ZM19.93 39.3899C19.958 39.0971 19.9211 38.8017 19.8219 38.5248C19.7227 38.2479 19.5636 37.9963 19.356 37.7879C17.236 35.6599 16 32.9359 16 29.9999C16 23.6159 22.008 17.9999 30 17.9999C37.992 17.9999 44 23.6159 44 29.9999C44 36.3859 37.992 41.9999 30 41.9999C28.5902 42.0019 27.1863 41.819 25.824 41.4559C25.348 41.3283 24.8416 41.381 24.402 41.6039C23.628 41.9959 21.922 42.7439 19.134 43.3899C19.523 42.0842 19.7895 40.745 19.93 39.3899V39.3899Z" fill="white"/>
</g>
<defs>
<clipPath id="clip0_14_19">
<rect width="32" height="32" fill="white" transform="translate(14 13.9999)"/>
</clipPath>
</defs>
</svg>
