<svg width="92" height="92" viewBox="0 0 92 92" fill="none" xmlns="http://www.w3.org/2000/svg">
<path d="M24.5455 15.4546C22.8095 15.4546 21.1446 16.1442 19.9171 17.3717C18.6896 18.5992 18 20.2641 18 22V70C18 71.736 18.6896 73.4008 19.9171 74.6284C21.1446 75.8559 22.8095 76.5455 24.5455 76.5455H59.4545C61.1905 76.5455 62.8554 75.8559 64.0829 74.6284C65.3104 73.4008 66 71.736 66 70V34.7157C65.9991 32.9806 65.3092 31.3169 64.0822 30.0902L51.3665 17.3702C50.139 16.1434 48.4744 15.4544 46.7389 15.4546H24.5455ZM22.3636 22C22.3636 21.4214 22.5935 20.8664 23.0027 20.4572C23.4118 20.0481 23.9668 19.8182 24.5455 19.8182H44.1818V30.7273C44.1818 32.4632 44.8714 34.1281 46.0989 35.3556C47.3264 36.5831 48.9913 37.2727 50.7273 37.2727H61.6364V70C61.6364 70.5787 61.4065 71.1336 60.9973 71.5428C60.5882 71.952 60.0332 72.1818 59.4545 72.1818H24.5455C23.9668 72.1818 23.4118 71.952 23.0027 71.5428C22.5935 71.1336 22.3636 70.5787 22.3636 70V22ZM60.7331 32.9091H50.7273C50.1486 32.9091 49.5937 32.6792 49.1845 32.2701C48.7753 31.8609 48.5455 31.3059 48.5455 30.7273V20.7215L60.7331 32.9091Z" fill="black"/>
<path opacity="0.3" d="M30 77.5V33C30 30.2386 32.2386 28 35 28H56.4289C57.755 28 59.0268 28.5268 59.9645 29.4645L71.5355 41.0355C72.4732 41.9732 73 43.245 73 44.5711V77.5C73 80.2614 70.7614 82.5 68 82.5H35C32.2386 82.5 30 80.2614 30 77.5Z" fill="#2241B1" stroke="#2241B0"/>
</svg>
