<svg width="200" height="43" viewBox="0 0 200 43" fill="none" xmlns="http://www.w3.org/2000/svg">
<g clip-path="url(#clip0_3_12)">
<path d="M58.6353 8.66669C61.248 8.66669 63.4186 9.33103 65.147 10.6597C66.8755 11.9884 68.0412 13.7902 68.6441 16.0651H64.9963C64.4939 14.7767 63.6899 13.76 62.5845 13.0151C61.4992 12.2501 60.1627 11.8676 58.575 11.8676C57.3088 11.8676 56.1733 12.1797 55.1684 12.8037C54.1836 13.4278 53.3997 14.3237 52.8169 15.4913C52.2542 16.6388 51.9728 17.9876 51.9728 19.5378C51.9728 21.0678 52.2542 22.4166 52.8169 23.5843C53.3997 24.7318 54.1836 25.6176 55.1684 26.2416C56.1733 26.8657 57.3088 27.1778 58.575 27.1778C60.1627 27.1778 61.4992 26.8053 62.5845 26.0605C63.6899 25.2954 64.4939 24.2788 64.9963 23.0105H68.6441C68.0412 25.2854 66.8755 27.0872 65.147 28.4159C63.4186 29.7244 61.248 30.3787 58.6353 30.3787C56.6255 30.3787 54.8468 29.9257 53.2992 29.0198C51.7517 28.0938 50.5559 26.8154 49.7117 25.1847C48.8676 23.534 48.4456 21.6516 48.4456 19.5378C48.4456 17.424 48.8676 15.5517 49.7117 13.9211C50.5559 12.2703 51.7517 10.9818 53.2992 10.0558C54.8468 9.12974 56.6255 8.66669 58.6353 8.66669ZM79.6698 13.3473C81.2779 13.3473 82.725 13.6896 84.011 14.374C85.2978 15.0585 86.3022 16.045 87.0257 17.3334C87.7492 18.6218 88.111 20.1317 88.111 21.863C88.111 23.6145 87.7492 25.1344 87.0257 26.4228C86.3022 27.7112 85.2978 28.6977 84.011 29.3822C82.725 30.0666 81.2779 30.4089 79.6698 30.4089C78.0625 30.4089 76.6154 30.0666 75.3287 29.3822C74.0625 28.6977 73.0579 27.7112 72.3142 26.4228C71.5907 25.1142 71.2289 23.5943 71.2289 21.863C71.2289 20.1317 71.5907 18.6218 72.3142 17.3334C73.0579 16.045 74.0625 15.0585 75.3287 14.374C76.6154 13.6896 78.0625 13.3473 79.6698 13.3473ZM79.6698 16.3369C78.786 16.3369 77.972 16.5381 77.2279 16.9408C76.4845 17.3435 75.8816 17.9675 75.4191 18.8131C74.9772 19.6385 74.7559 20.6551 74.7559 21.863C74.7559 23.091 74.9772 24.1177 75.4191 24.9431C75.8816 25.7686 76.4845 26.3825 77.2279 26.7852C77.972 27.1879 78.786 27.3891 79.6698 27.3891C80.5544 27.3891 81.3684 27.1879 82.1117 26.7852C82.8559 26.3825 83.4485 25.7686 83.8904 24.9431C84.3529 24.1177 84.5838 23.091 84.5838 21.863C84.5838 20.6551 84.3529 19.6385 83.8904 18.8131C83.4485 17.9675 82.8559 17.3435 82.1117 16.9408C81.3684 16.5381 80.5544 16.3369 79.6698 16.3369ZM112.187 13.2869C114.157 13.2869 115.724 13.911 116.89 15.1592C118.076 16.4073 118.668 18.189 118.668 20.5041V30.1975H115.232V20.8665C115.232 19.417 114.87 18.2997 114.146 17.5146C113.423 16.7093 112.428 16.3067 111.162 16.3067C109.815 16.3067 108.74 16.7395 107.936 17.6052C107.152 18.4507 106.76 19.6989 106.76 21.3496V30.1975H103.324V20.8665C103.324 19.417 102.962 18.2997 102.238 17.5146C101.515 16.7093 100.52 16.3067 99.2537 16.3067C97.9073 16.3067 96.8316 16.7395 96.0279 17.6052C95.2441 18.4507 94.8522 19.6989 94.8522 21.3496V30.1975H91.4154V13.5587H94.8522V17.0314C95.2742 15.8235 95.9779 14.8975 96.9625 14.2532C97.947 13.609 99.1029 13.2869 100.429 13.2869C101.816 13.2869 103.012 13.6292 104.017 14.3136C105.042 14.9981 105.785 15.9846 106.248 17.273C106.73 16.0248 107.504 15.0485 108.569 14.3438C109.635 13.6392 110.84 13.2869 112.187 13.2869ZM132.208 13.3473C133.655 13.3473 134.941 13.6896 136.067 14.374C137.212 15.0585 138.107 16.045 138.75 17.3334C139.393 18.6218 139.715 20.1317 139.715 21.863C139.715 23.6145 139.393 25.1344 138.75 26.4228C138.107 27.7112 137.212 28.6977 136.067 29.3822C134.941 30.0666 133.655 30.4089 132.208 30.4089C130.701 30.4089 129.414 30.0364 128.349 29.2916C127.284 28.5467 126.54 27.5602 126.118 26.3322V38.1093H122.682V13.5587H126.118V17.424C126.54 16.196 127.284 15.2095 128.349 14.4646C129.414 13.7198 130.701 13.3473 132.208 13.3473ZM131.153 16.3671C130.188 16.3671 129.324 16.5985 128.56 17.0616C127.796 17.5045 127.193 18.1487 126.751 18.9942C126.309 19.8197 126.088 20.7759 126.088 21.863C126.088 22.9702 126.309 23.9365 126.751 24.762C127.193 25.5874 127.796 26.2315 128.56 26.6946C129.324 27.1375 130.188 27.3589 131.153 27.3589C132.68 27.3589 133.906 26.8758 134.831 25.9095C135.755 24.923 136.218 23.5742 136.218 21.863C136.218 20.1719 135.755 18.8332 134.831 17.8467C133.906 16.8603 132.68 16.3671 131.153 16.3671ZM149.687 13.3473C151.195 13.3473 152.481 13.7198 153.546 14.4646C154.611 15.2095 155.365 16.196 155.807 17.424V13.5587H159.244V30.1975H155.807V26.3322C155.365 27.5602 154.611 28.5467 153.546 29.2916C152.481 30.0364 151.195 30.4089 149.687 30.4089C148.24 30.4089 146.944 30.0666 145.799 29.3822C144.673 28.6977 143.788 27.7112 143.146 26.4228C142.502 25.1344 142.181 23.6145 142.181 21.863C142.181 20.1317 142.502 18.6218 143.146 17.3334C143.788 16.045 144.673 15.0585 145.799 14.374C146.944 13.6896 148.24 13.3473 149.687 13.3473ZM150.743 16.3671C149.215 16.3671 147.989 16.8603 147.065 17.8467C146.16 18.8131 145.708 20.1518 145.708 21.863C145.708 23.5742 146.16 24.923 147.065 25.9095C147.989 26.8758 149.215 27.3589 150.743 27.3589C151.707 27.3589 152.571 27.1375 153.335 26.6946C154.099 26.2315 154.701 25.5874 155.144 24.762C155.586 23.9365 155.807 22.9702 155.807 21.863C155.807 20.7759 155.586 19.8197 155.144 18.9942C154.701 18.1487 154.099 17.5045 153.335 17.0616C152.571 16.5985 151.707 16.3671 150.743 16.3671ZM172.654 13.2869C174.583 13.2869 176.13 13.911 177.296 15.1592C178.462 16.4073 179.045 18.189 179.045 20.5041V30.1975H175.608V20.8665C175.608 19.3767 175.226 18.2292 174.463 17.424C173.699 16.5985 172.654 16.1859 171.327 16.1859C169.96 16.1859 168.865 16.6287 168.041 17.5146C167.217 18.3802 166.805 19.6586 166.805 21.3496V30.1975H163.368V13.5587H166.805V17.2126C167.247 15.9644 167.99 14.9981 169.036 14.3136C170.081 13.6292 171.287 13.2869 172.654 13.2869ZM185.024 13.5587L189.998 25.7887L194.61 13.5587H198.439L188.4 38.1093H184.571L188.159 29.8049L181.165 13.5587H185.024Z" fill="white"/>
<path d="M40.1338 31.4193C38.1474 35.1459 35.1024 38.1988 31.3839 40.1918C27.6654 42.1849 23.4403 43.0288 19.243 42.6165C15.0458 42.2044 11.0648 40.5548 7.80346 37.8762C4.54218 35.1978 2.14705 31.6107 0.920985 27.5687C-0.305086 23.5267 -0.307033 19.2113 0.915389 15.1682C2.13781 11.1251 4.52969 7.53589 7.7886 4.85444C11.0474 2.17299 15.027 0.519753 19.2239 0.103784C23.4207 -0.312186 27.6465 0.527795 31.3668 2.51751L28.8418 7.25471C26.0568 5.76525 22.8935 5.13647 19.7518 5.44785C16.6101 5.75924 13.6311 6.99681 11.1915 9.00408C8.75199 11.0113 6.96151 13.6982 6.04643 16.7248C5.13135 19.7513 5.13281 22.9818 6.05062 26.0075C6.96843 29.0333 8.7614 31.7185 11.2027 33.7235C13.644 35.7286 16.6241 36.9635 19.7661 37.272C22.9081 37.5805 26.0709 36.9489 28.8545 35.4569C31.6381 33.9649 33.9175 31.6796 35.4045 28.89L40.1338 31.4193Z" fill="white"/>
<path d="M22.4264 32.4071C28.3147 32.4071 33.0882 27.6257 33.0882 21.7275C33.0882 15.8293 28.3147 11.0479 22.4264 11.0479C16.5381 11.0479 11.7646 15.8293 11.7646 21.7275C11.7646 27.6257 16.5381 32.4071 22.4264 32.4071Z" fill="white"/>
</g>
<defs>
<clipPath id="clip0_3_12">
<rect width="200" height="42.7185" fill="white"/>
</clipPath>
</defs>
</svg>
