<svg width="80" height="80" viewBox="0 0 80 80" fill="none" xmlns="http://www.w3.org/2000/svg">
<g opacity="0.1">
<path d="M28.1867 48.3134C28.4552 48.1104 28.762 47.9637 29.0886 47.8821C29.4152 47.8006 29.7549 47.7858 30.0874 47.8387C30.4198 47.8916 30.7381 48.0111 31.0233 48.1901C31.3084 48.369 31.5545 48.6037 31.7467 48.8801C32.3126 49.5028 32.953 50.0536 33.6534 50.5201C35.533 51.7679 37.744 52.4228 40 52.4001C42.85 52.4001 44.9567 51.4567 46.3467 50.5267C47.047 50.0602 47.6874 49.5095 48.2534 48.8867L48.3234 48.8001C48.7234 48.271 49.3172 47.9224 49.9742 47.8312C50.6312 47.7399 51.2976 47.9134 51.8267 48.3134C52.3558 48.7134 52.7043 49.3073 52.7956 49.9643C52.8869 50.6213 52.7134 51.2876 52.3134 51.8167L52.2234 51.9301C52.18 51.9834 52.1234 52.0567 52.05 52.1401C51.9034 52.3067 51.7 52.5367 51.4367 52.8001C50.7282 53.5034 49.9522 54.1353 49.12 54.6867C46.4184 56.48 43.2425 57.4248 40 57.4001C36.7575 57.4248 33.5816 56.48 30.88 54.6867C30.0479 54.1353 29.2719 53.5034 28.5634 52.8001C28.2856 52.5245 28.023 52.2341 27.7767 51.9301C26.9134 50.8234 27.0334 49.1834 28.1867 48.3167V48.3134Z" fill="#3064EB"/>
<path fill-rule="evenodd" clip-rule="evenodd" d="M40 3.33325C19.75 3.33325 3.33329 19.7499 3.33329 39.9999C3.33329 60.2499 19.75 76.6666 40 76.6666C60.25 76.6666 76.6666 60.2499 76.6666 39.9999C76.6666 19.7499 60.25 3.33325 40 3.33325ZM8.33329 39.9999C8.33329 31.6014 11.6696 23.5469 17.6082 17.6082C23.5469 11.6696 31.6014 8.33325 40 8.33325C48.3985 8.33325 56.453 11.6696 62.3917 17.6082C68.3303 23.5469 71.6666 31.6014 71.6666 39.9999C71.6666 48.3984 68.3303 56.453 62.3917 62.3916C56.453 68.3303 48.3985 71.6666 40 71.6666C31.6014 71.6666 23.5469 68.3303 17.6082 62.3916C11.6696 56.453 8.33329 48.3984 8.33329 39.9999Z" fill="#3064EB"/>
<path d="M30 35.8334C30 36.9385 29.5611 37.9983 28.7797 38.7797C27.9983 39.5611 26.9384 40.0001 25.8334 40.0001C24.7283 40.0001 23.6685 39.5611 22.8871 38.7797C22.1057 37.9983 21.6667 36.9385 21.6667 35.8334C21.6667 34.7283 22.1057 33.6685 22.8871 32.8871C23.6685 32.1057 24.7283 31.6667 25.8334 31.6667C26.9384 31.6667 27.9983 32.1057 28.7797 32.8871C29.5611 33.6685 30 34.7283 30 35.8334ZM54.1667 40.0001C55.2718 40.0001 56.3316 39.5611 57.113 38.7797C57.8944 37.9983 58.3334 36.9385 58.3334 35.8334C58.3334 34.7283 57.8944 33.6685 57.113 32.8871C56.3316 32.1057 55.2718 31.6667 54.1667 31.6667C53.0616 31.6667 52.0018 32.1057 51.2204 32.8871C50.439 33.6685 50 34.7283 50 35.8334C50 36.9385 50.439 37.9983 51.2204 38.7797C52.0018 39.5611 53.0616 40.0001 54.1667 40.0001Z" fill="#3064EB"/>
</g>
</svg>
