<svg width="175" height="500" viewBox="0 0 175 500" fill="none" xmlns="http://www.w3.org/2000/svg">
<path opacity="0.05" fill-rule="evenodd" clip-rule="evenodd" d="M-243.743 86.9421C-212.86 64.6558 -195.518 25.1765 -160.064 11.269C-123.98 -2.88564 -82.1938 -2.67342 -45.2585 9.0836C-9.56327 20.4459 20.5201 46.2347 43.2722 75.9937C63.7078 102.723 60.1971 140.743 77.4747 169.615C95.5344 199.793 131.056 216.187 146.172 247.942C164.138 285.681 180.672 327.993 172.37 368.957C163.938 410.56 135.781 448.382 100.704 472.289C66.3698 495.689 22.2236 498.632 -19.3151 499.601C-55.6817 500.45 -89.3817 485.86 -124.797 477.551C-158.253 469.702 -196.202 472.916 -223.275 451.751C-250.244 430.666 -261.952 395.474 -271.741 362.671C-280.531 333.213 -265.873 300.415 -276.989 271.753C-294.449 226.733 -362.351 198.603 -353.802 151.079C-346.189 108.758 -278.612 112.105 -243.743 86.9421Z" fill="#3064EB"/>
</svg>
