<svg width="184" height="151" viewBox="0 0 184 151" fill="none" xmlns="http://www.w3.org/2000/svg">
<path opacity="0.05" fill-rule="evenodd" clip-rule="evenodd" d="M171.081 79.6757C169.229 92.0279 174.514 105.145 169.649 116.649C164.698 128.357 155.07 138.109 143.845 144.077C132.998 149.845 120.054 150.99 107.858 149.505C96.9045 148.171 88.7915 138.632 78.0593 136.067C66.8413 133.385 54.8536 137.959 43.9404 134.226C30.9707 129.789 17.2562 123.968 9.5512 112.63C1.72586 101.116 -0.690832 85.8424 1.74229 72.135C4.12385 58.7181 13.5531 47.689 22.8474 37.7239C30.9844 28.9995 42.1314 24.4395 52.1982 18.0375C61.7082 11.9894 69.6531 2.35171 80.8234 0.853376C91.9507 -0.639185 102.889 4.68177 112.827 9.90507C121.751 14.5957 126.084 25.5518 135.354 29.5146C149.916 35.7391 172.079 26.2606 181.266 39.1597C189.447 50.6463 173.172 65.7293 171.081 79.6757Z" fill="#3064EB"/>
</svg>
