<svg width="155" height="85" viewBox="0 0 155 85" fill="none" xmlns="http://www.w3.org/2000/svg">
<path fill-rule="evenodd" clip-rule="evenodd" d="M72.2468 2.13734C84.5119 7.44678 86.711 23.9899 95.2951 34.1916C100.347 40.1952 105.627 45.991 112.443 49.908C123.728 56.3938 140.018 54.4176 148.136 64.559C155.686 73.9926 156.775 88.7081 152.542 100.006C148.277 111.39 134.554 115.78 125.777 124.231C118.092 131.631 113.856 143.303 103.802 146.938C93.7336 150.577 82.9586 143.707 72.2468 143.581C61.6792 143.456 50.9815 149.791 41.05 146.198C31.0854 142.594 25.4964 132.338 18.73 124.22C11.8659 115.985 3.25355 108.412 0.863125 97.9836C-1.52718 87.5555 1.37755 76.5067 5.53183 66.641C9.40294 57.4479 19.0717 52.165 23.8466 43.402C29.8056 32.466 27.4748 17.0399 36.9708 8.94379C46.1794 1.09276 61.1249 -2.67716 72.2468 2.13734Z" fill="#3064EB"/>
</svg>
