<svg width="197" height="274" viewBox="0 0 197 274" fill="none" xmlns="http://www.w3.org/2000/svg">
<path opacity="0.05" fill-rule="evenodd" clip-rule="evenodd" d="M94.8948 -76.3337C121.085 -95.234 135.792 -128.715 165.86 -140.51C196.462 -152.514 231.899 -152.334 263.223 -142.363C293.495 -132.727 319.007 -110.856 338.303 -85.6187C355.633 -62.9506 352.656 -30.7067 367.308 -6.22202C382.624 19.3711 412.749 33.2745 425.569 60.2047C440.804 92.2097 454.826 128.094 447.786 162.833C440.635 198.116 416.756 230.191 387.008 250.465C357.891 270.311 320.452 272.806 285.224 273.628C254.383 274.348 225.803 261.975 195.769 254.928C167.396 248.272 135.213 250.998 112.253 233.048C89.3811 215.167 79.4525 185.322 71.1508 157.502C63.6957 132.52 76.1268 104.705 66.6999 80.3983C51.8925 42.2178 -5.69291 18.3623 1.55751 -21.9418C8.01403 -57.8327 65.3237 -54.9939 94.8948 -76.3337Z" fill="#3064EB"/>
</svg>
