<svg width="24" height="24" viewBox="0 0 24 24" fill="none" xmlns="http://www.w3.org/2000/svg">
<path fill-rule="evenodd" clip-rule="evenodd" d="M12 24C18.6274 24 24 18.6274 24 12C24 5.37258 18.6274 0 12 0C5.37258 0 0 5.37258 0 12C0 18.6274 5.37258 24 12 24ZM9.93937 7.03C10.4725 7.00625 10.6431 7 12 7H11.9987C13.3575 7 13.5269 7.00625 14.0606 7.03C14.5925 7.05438 14.9563 7.13875 15.275 7.2625C15.6087 7.3879 15.911 7.5848 16.1606 7.83938C16.415 8.08917 16.6118 8.39139 16.7375 8.725C16.8606 9.0425 16.945 9.40625 16.97 9.93813C16.9937 10.4719 17 10.6419 17 12C17 13.3581 16.9937 13.5281 16.97 14.0613C16.945 14.5938 16.8606 14.9569 16.7375 15.275C16.6094 15.6038 16.4387 15.8825 16.1606 16.1606C15.9111 16.415 15.6091 16.6119 15.2756 16.7375C14.9575 16.8612 14.5931 16.945 14.0613 16.97C13.5275 16.9937 13.3581 17 12 17C10.6419 17 10.4719 16.9937 9.93813 16.97C9.40563 16.9456 9.04313 16.8612 8.72437 16.7375C8.39563 16.61 8.11687 16.4387 7.83938 16.1606C7.56125 15.8825 7.39062 15.6038 7.2625 15.275C7.13875 14.9569 7.055 14.5938 7.03 14.0613C7.00625 13.5281 7 13.3581 7 12.0006C7 10.6419 7.00625 10.4719 7.03 9.9375C7.05438 9.40625 7.13875 9.0425 7.2625 8.725C7.38819 8.3914 7.58505 8.08918 7.83938 7.83938C8.08906 7.58489 8.39131 7.38801 8.725 7.2625C9.04313 7.13875 9.40625 7.055 9.93937 7.03ZM12.0006 7.90125H11.5519V7.9C10.62 7.90063 10.4412 7.90688 9.98 7.92812C9.4925 7.95062 9.22812 8.03187 9.05188 8.10063C8.81812 8.19125 8.65187 8.29937 8.47688 8.47437C8.30188 8.64937 8.19312 8.81625 8.1025 9.04937C8.03375 9.22563 7.9525 9.49063 7.93 9.97812C7.90625 10.505 7.90125 10.6625 7.90125 11.9975C7.90125 13.3331 7.90625 13.4913 7.93 14.0181C7.95188 14.5056 8.03375 14.7706 8.10188 14.9462C8.18233 15.1635 8.31047 15.36 8.47688 15.5212C8.6382 15.6872 8.83469 15.815 9.05188 15.895C9.22812 15.9637 9.4925 16.045 9.98 16.0675C10.5069 16.0912 10.6656 16.0969 12.0006 16.0969C13.3356 16.0969 13.4937 16.0912 14.0206 16.0675C14.5087 16.045 14.7738 15.9637 14.9488 15.895C15.1825 15.8044 15.3488 15.6962 15.5237 15.5212C15.69 15.3603 15.818 15.164 15.8981 14.9469C15.9663 14.7706 16.0481 14.5062 16.07 14.0187C16.0944 13.4919 16.0994 13.3331 16.0994 11.9987C16.0994 10.6644 16.0944 10.5063 16.07 9.97937C16.0481 9.49187 15.9669 9.22688 15.8981 9.05125C15.8075 8.8175 15.6994 8.65125 15.5244 8.47625C15.3494 8.30125 15.1825 8.1925 14.9494 8.10188C14.7731 8.03375 14.5081 7.95188 14.0206 7.93C13.4937 7.90562 13.3356 7.90125 12.0006 7.90125ZM14.4398 8.77692C14.5126 8.74677 14.5906 8.73125 14.6694 8.73125C14.8285 8.73125 14.9811 8.79446 15.0936 8.90699C15.2062 9.01951 15.2694 9.17212 15.2694 9.33125C15.2694 9.49038 15.2062 9.64299 15.0936 9.75551C14.9811 9.86804 14.8285 9.93125 14.6694 9.93125C14.5906 9.93125 14.5126 9.91573 14.4398 9.88558C14.367 9.85542 14.3008 9.81123 14.2451 9.75551C14.1894 9.6998 14.1452 9.63366 14.115 9.56086C14.0849 9.48806 14.0694 9.41004 14.0694 9.33125C14.0694 9.25246 14.0849 9.17444 14.115 9.10164C14.1452 9.02884 14.1894 8.9627 14.2451 8.90699C14.3008 8.85127 14.367 8.80708 14.4398 8.77692ZM11.0056 9.61634C11.3218 9.48968 11.66 9.42719 12.0006 9.4325C12.6747 9.44302 13.3176 9.71818 13.7906 10.1986C14.2636 10.679 14.5287 11.3261 14.5287 12.0003C14.5287 12.6745 14.2636 13.3216 13.7906 13.802C13.3176 14.2824 12.6747 14.5576 12.0006 14.5681C11.66 14.5734 11.3218 14.5109 11.0056 14.3843C10.6894 14.2576 10.4016 14.0693 10.1588 13.8304C9.91612 13.5914 9.72335 13.3065 9.59178 12.9923C9.4602 12.6782 9.39244 12.3409 9.39244 12.0003C9.39244 11.6597 9.4602 11.3225 9.59178 11.0083C9.72335 10.6941 9.91612 10.4092 10.1588 10.1703C10.4016 9.93129 10.6894 9.743 11.0056 9.61634ZM13.1793 10.8213C12.8667 10.5087 12.4427 10.3331 12.0006 10.3331C11.5585 10.3331 11.1346 10.5087 10.822 10.8213C10.5094 11.1339 10.3337 11.5579 10.3337 12C10.3337 12.4421 10.5094 12.8661 10.822 13.1787C11.1346 13.4913 11.5585 13.6669 12.0006 13.6669C12.4427 13.6669 12.8667 13.4913 13.1793 13.1787C13.4919 12.8661 13.6675 12.4421 13.6675 12C13.6675 11.5579 13.4919 11.1339 13.1793 10.8213Z" fill="white"/>
</svg>
