<svg width="30" height="30" viewBox="0 0 30 30" fill="none" xmlns="http://www.w3.org/2000/svg">
<rect width="30" height="30" rx="5" fill="#3064EB"/>
<g clip-path="url(#clip0_15_180)">
<rect x="7" y="7" width="17" height="17" rx="5" fill="#3064EB"/>
<path d="M11.3924 21.875H8.30847V11.9438H11.3924V21.875ZM9.84856 10.5891C8.86256 10.5891 8.0625 9.77206 8.0625 8.78606C8.0625 8.31237 8.25067 7.85808 8.58563 7.52313C8.92058 7.18817 9.37487 7 9.84856 7C10.3223 7 10.7765 7.18817 11.1115 7.52313C11.4465 7.85808 11.6346 8.31237 11.6346 8.78606C11.6346 9.77206 10.8346 10.5891 9.84856 10.5891ZM22.9343 21.875H19.8573V17.0406C19.8573 15.8883 19.8339 14.4109 18.254 14.4109C16.6507 14.4109 16.4047 15.6626 16.4047 16.9577V21.875H13.324V11.9438H16.2815V13.2985H16.3245C16.7362 12.5181 17.7419 11.6947 19.2421 11.6947C22.3632 11.6947 22.937 13.7501 22.937 16.4196V21.875H22.9343Z" fill="white"/>
</g>
<defs>
<clipPath id="clip0_15_180">
<rect x="7" y="7" width="17" height="17" rx="5" fill="white"/>
</clipPath>
</defs>
</svg>
