<svg width="25" height="25" viewBox="0 0 25 25" fill="none" xmlns="http://www.w3.org/2000/svg">
<path d="M12.5 2.00879C17.308 2.00879 21.2054 5.90611 21.2054 10.7141C21.2054 14.3927 18.6205 18.4016 13.5179 22.7838C13.2341 23.0275 12.8724 23.1614 12.4983 23.1611C12.1243 23.1607 11.7628 23.0262 11.4795 22.782L11.142 22.4891C6.26518 18.2213 3.79465 14.3106 3.79465 10.7141C3.79465 5.90611 7.69197 2.00879 12.5 2.00879ZM12.5 7.36593C11.612 7.36593 10.7604 7.71869 10.1325 8.3466C9.50455 8.97451 9.15179 9.82614 9.15179 10.7141C9.15179 11.6021 9.50455 12.4538 10.1325 13.0817C10.7604 13.7096 11.612 14.0624 12.5 14.0624C13.388 14.0624 14.2396 13.7096 14.8676 13.0817C15.4955 12.4538 15.8482 11.6021 15.8482 10.7141C15.8482 9.82614 15.4955 8.97451 14.8676 8.3466C14.2396 7.71869 13.388 7.36593 12.5 7.36593Z" fill="#3064EB"/>
</svg>
