<svg width="213" height="43" viewBox="0 0 213 43" fill="none" xmlns="http://www.w3.org/2000/svg">
<g clip-path="url(#clip0_28_15)">
<path d="M62.8016 9C65.5712 9 67.8721 9.74461 69.7043 11.2338C71.5366 12.7231 72.7722 14.7425 73.4114 17.2923H69.5445C69.012 15.8482 68.1597 14.7087 66.988 13.8738C65.8375 13.0164 64.4207 12.5877 62.7377 12.5877C61.3954 12.5877 60.1917 12.9375 59.1265 13.6369C58.0826 14.3364 57.2517 15.3405 56.6338 16.6492C56.0373 17.9354 55.739 19.4472 55.739 21.1846C55.739 22.8995 56.0373 24.4113 56.6338 25.72C57.2517 27.0062 58.0826 27.999 59.1265 28.6985C60.1917 29.3979 61.3954 29.7477 62.7377 29.7477C64.4207 29.7477 65.8375 29.3302 66.988 28.4954C68.1597 27.6379 69.012 26.4985 69.5445 25.0769H73.4114C72.7722 27.6267 71.5366 29.6462 69.7043 31.1354C67.8721 32.6021 65.5712 33.3354 62.8016 33.3354C60.6711 33.3354 58.7856 32.8277 57.1451 31.8123C55.5046 30.7744 54.237 29.3415 53.3422 27.5138C52.4474 25.6636 52 23.5538 52 21.1846C52 18.8154 52.4474 16.7169 53.3422 14.8892C54.237 13.039 55.5046 11.5948 57.1451 10.5569C58.7856 9.519 60.6711 9 62.8016 9ZM85.0992 14.2462C86.8038 14.2462 88.3378 14.6298 89.701 15.3969C91.0651 16.1641 92.1298 17.2698 92.8968 18.7138C93.6637 20.1579 94.0472 21.8502 94.0472 23.7908C94.0472 25.7538 93.6637 27.4575 92.8968 28.9015C92.1298 30.3456 91.0651 31.4513 89.701 32.2185C88.3378 32.9856 86.8038 33.3692 85.0992 33.3692C83.3953 33.3692 81.8614 32.9856 80.4973 32.2185C79.1551 31.4513 78.0902 30.3456 77.3019 28.9015C76.5349 27.4348 76.1514 25.7313 76.1514 23.7908C76.1514 21.8502 76.5349 20.1579 77.3019 18.7138C78.0902 17.2698 79.1551 16.1641 80.4973 15.3969C81.8614 14.6298 83.3953 14.2462 85.0992 14.2462ZM85.0992 17.5969C84.1623 17.5969 83.2994 17.8225 82.5106 18.2738C81.7226 18.7252 81.0835 19.4246 80.5932 20.3723C80.1248 21.2975 79.8901 22.4369 79.8901 23.7908C79.8901 25.1672 80.1248 26.3179 80.5932 27.2431C81.0835 28.1682 81.7226 28.8564 82.5106 29.3077C83.2994 29.759 84.1623 29.9846 85.0992 29.9846C86.0369 29.9846 86.8997 29.759 87.6877 29.3077C88.4765 28.8564 89.1048 28.1682 89.5732 27.2431C90.0635 26.3179 90.3082 25.1672 90.3082 23.7908C90.3082 22.4369 90.0635 21.2975 89.5732 20.3723C89.1048 19.4246 88.4765 18.7252 87.6877 18.2738C86.8997 17.8225 86.0369 17.5969 85.0992 17.5969ZM119.569 14.1785C121.657 14.1785 123.319 14.8779 124.554 16.2769C125.811 17.6759 126.439 19.6728 126.439 22.2677V33.1323H122.796V22.6738C122.796 21.0492 122.413 19.7969 121.646 18.9169C120.879 18.0144 119.824 17.5631 118.482 17.5631C117.055 17.5631 115.915 18.0482 115.063 19.0185C114.232 19.9662 113.816 21.3652 113.816 23.2154V33.1323H110.173V22.6738C110.173 21.0492 109.79 19.7969 109.023 18.9169C108.256 18.0144 107.201 17.5631 105.859 17.5631C104.432 17.5631 103.291 18.0482 102.44 19.0185C101.609 19.9662 101.193 21.3652 101.193 23.2154V33.1323H97.55V14.4831H101.193V18.3754C101.641 17.0215 102.387 15.9836 103.43 15.2615C104.474 14.5395 105.699 14.1785 107.105 14.1785C108.575 14.1785 109.843 14.5621 110.908 15.3292C111.995 16.0964 112.783 17.2021 113.273 18.6462C113.784 17.2472 114.604 16.1528 115.734 15.3631C116.863 14.5733 118.141 14.1785 119.569 14.1785ZM140.792 14.2462C142.326 14.2462 143.689 14.6298 144.883 15.3969C146.097 16.1641 147.045 17.2698 147.727 18.7138C148.408 20.1579 148.75 21.8502 148.75 23.7908C148.75 25.7538 148.408 27.4575 147.727 28.9015C147.045 30.3456 146.097 31.4513 144.883 32.2185C143.689 32.9856 142.326 33.3692 140.792 33.3692C139.194 33.3692 137.83 32.9518 136.702 32.1169C135.572 31.2821 134.784 30.1764 134.337 28.8V42H130.694V14.4831H134.337V18.8154C134.784 17.439 135.572 16.3333 136.702 15.4985C137.83 14.6636 139.194 14.2462 140.792 14.2462ZM139.674 17.6308C138.651 17.6308 137.734 17.8902 136.925 18.4092C136.115 18.9056 135.476 19.6277 135.008 20.5754C134.539 21.5005 134.305 22.5723 134.305 23.7908C134.305 25.0318 134.539 26.1148 135.008 27.04C135.476 27.9652 136.115 28.6872 136.925 29.2062C137.734 29.7025 138.651 29.9508 139.674 29.9508C141.293 29.9508 142.592 29.4092 143.572 28.3262C144.552 27.2205 145.042 25.7087 145.042 23.7908C145.042 21.8954 144.552 20.3948 143.572 19.2892C142.592 18.1836 141.293 17.6308 139.674 17.6308ZM159.321 14.2462C160.919 14.2462 162.282 14.6636 163.412 15.4985C164.54 16.3333 165.339 17.439 165.808 18.8154V14.4831H169.452V33.1323H165.808V28.8C165.339 30.1764 164.54 31.2821 163.412 32.1169C162.282 32.9518 160.919 33.3692 159.321 33.3692C157.787 33.3692 156.413 32.9856 155.199 32.2185C154.005 31.4513 153.068 30.3456 152.386 28.9015C151.704 27.4575 151.364 25.7538 151.364 23.7908C151.364 21.8502 151.704 20.1579 152.386 18.7138C153.068 17.2698 154.005 16.1641 155.199 15.3969C156.413 14.6298 157.787 14.2462 159.321 14.2462ZM160.44 17.6308C158.82 17.6308 157.521 18.1836 156.541 19.2892C155.582 20.3723 155.103 21.8728 155.103 23.7908C155.103 25.7087 155.582 27.2205 156.541 28.3262C157.521 29.4092 158.82 29.9508 160.44 29.9508C161.462 29.9508 162.378 29.7025 163.188 29.2062C163.997 28.6872 164.636 27.9652 165.105 27.04C165.574 26.1148 165.808 25.0318 165.808 23.7908C165.808 22.5723 165.574 21.5005 165.105 20.5754C164.636 19.6277 163.997 18.9056 163.188 18.4092C162.378 17.8902 161.462 17.6308 160.44 17.6308ZM183.666 14.1785C185.712 14.1785 187.352 14.8779 188.588 16.2769C189.823 17.6759 190.441 19.6728 190.441 22.2677V33.1323H186.798V22.6738C186.798 21.0041 186.393 19.7179 185.584 18.8154C184.774 17.8902 183.666 17.4277 182.26 17.4277C180.811 17.4277 179.65 17.9241 178.777 18.9169C177.903 19.8872 177.467 21.32 177.467 23.2154V33.1323H173.824V14.4831H177.467V18.5785C177.935 17.1795 178.723 16.0964 179.832 15.3292C180.939 14.5621 182.217 14.1785 183.666 14.1785ZM196.779 14.4831L202.052 28.1908L206.941 14.4831H211L200.358 42H196.3L200.103 32.6923L192.688 14.4831H196.779Z" fill="black"/>
<path d="M42 31.6264C39.9707 35.3776 36.86 38.4505 33.0613 40.4567C29.2625 42.4629 24.9462 43.3123 20.6584 42.8974C16.3706 42.4825 12.3036 40.822 8.97189 38.1259C5.64022 35.4298 3.19339 31.819 1.94086 27.7504C0.688329 23.6818 0.68634 19.3379 1.93515 15.2682C3.18395 11.1985 5.62746 7.58557 8.95671 4.88644C12.2859 2.18733 16.3513 0.523194 20.6388 0.104483C24.9262 -0.314228 29.2433 0.531288 33.0439 2.53411L30.4643 7.30254C27.6192 5.80326 24.3876 5.17033 21.1781 5.48376C17.9686 5.7972 14.9253 7.04294 12.4331 9.06343C9.94089 11.0839 8.11176 13.7885 7.17693 16.835C6.24211 19.8815 6.2436 23.1332 7.18121 26.1789C8.11883 29.2246 9.9505 31.9275 12.4445 33.9457C14.9385 35.9641 17.9829 37.2071 21.1927 37.5176C24.4025 37.8282 27.6336 37.1924 30.4773 35.6906C33.321 34.1888 35.6496 31.8884 37.1687 29.0804L42 31.6264Z" fill="#142756"/>
<path d="M22 33C28.0751 33 33 28.0751 33 22C33 15.9249 28.0751 11 22 11C15.9249 11 11 15.9249 11 22C11 28.0751 15.9249 33 22 33Z" fill="#3064EB"/>
</g>
<defs>
<clipPath id="clip0_28_15">
<rect width="212.893" height="42.7185" fill="white"/>
</clipPath>
</defs>
</svg>
