<svg width="25" height="25" viewBox="0 0 25 25" fill="none" xmlns="http://www.w3.org/2000/svg">
<path d="M2.67857 9.03936L12.1911 13.9867C12.2865 14.0363 12.3925 14.0622 12.5 14.0622C12.6075 14.0622 12.7135 14.0363 12.8089 13.9867L22.3214 9.04025V17.634C22.3215 18.3752 22.0379 19.0883 21.5289 19.6271C21.0198 20.1658 20.3239 20.4894 19.5839 20.5313L19.4196 20.5358H5.58036C4.83916 20.5358 4.12605 20.2523 3.5873 19.7432C3.04854 19.2342 2.725 18.5383 2.68304 17.7983L2.67857 17.634V9.03936ZM5.58036 4.46436H19.4196C20.1608 4.46431 20.874 4.74789 21.4127 5.25692C21.9515 5.76595 22.275 6.46185 22.317 7.20186L22.3214 7.36614V7.53043L12.5 12.6376L2.67857 7.53043V7.36614C2.67853 6.62495 2.9621 5.91183 3.47114 5.37308C3.98017 4.83433 4.67607 4.51078 5.41607 4.46882L5.58036 4.46436H19.4196H5.58036Z" fill="#3064EB"/>
</svg>
