<svg width="76" height="74" viewBox="0 0 76 74" fill="none" xmlns="http://www.w3.org/2000/svg">
<path d="M70.6316 13.0703H15.2543C13.0555 13.0703 11.269 14.8451 11.2544 17.0438L10.9418 64.2523C10.9181 67.8287 15.2412 69.6361 17.7701 67.1072L25.4425 59.4349C26.1926 58.6847 27.21 58.2633 28.2709 58.2633H70.6316C72.8407 58.2633 74.6316 56.4724 74.6316 54.2633V17.0703C74.6316 14.8612 72.8407 13.0703 70.6316 13.0703Z" fill="#B8C2E8" stroke="#B8C2E8"/>
<path d="M60.7281 4.33772C61.8785 4.33772 62.9818 4.79473 63.7953 5.60821C64.6088 6.42169 65.0658 7.525 65.0658 8.67544V43.3772C65.0658 44.5276 64.6088 45.6309 63.7953 46.4444C62.9818 47.2579 61.8785 47.7149 60.7281 47.7149H19.1467C16.846 47.7154 14.6397 48.6297 13.0132 50.2568L4.33772 58.9323V8.67544C4.33772 7.525 4.79473 6.42169 5.60821 5.60821C6.42169 4.79473 7.525 4.33772 8.67544 4.33772H60.7281ZM8.67544 0C6.37457 0 4.16794 0.914017 2.54098 2.54098C0.914017 4.16794 0 6.37457 0 8.67544L0 64.1679C9.11566e-05 64.597 0.127497 65.0165 0.366092 65.3732C0.604686 65.7299 0.943744 66.0079 1.34035 66.1718C1.73696 66.3357 2.17329 66.3783 2.59411 66.2942C3.01494 66.21 3.40134 66.0029 3.70441 65.6991L16.0799 53.3236C16.8932 52.51 17.9964 52.0529 19.1467 52.0526H60.7281C63.0289 52.0526 65.2356 51.1386 66.8625 49.5117C68.4895 47.8847 69.4035 45.6781 69.4035 43.3772V8.67544C69.4035 6.37457 68.4895 4.16794 66.8625 2.54098C65.2356 0.914017 63.0289 0 60.7281 0L8.67544 0Z" fill="black"/>
</svg>
