<?xml version="1.0" encoding="UTF-8"?>
<!DOCTYPE svg  PUBLIC '-//W3C//DTD SVG 1.1//EN'  'http://www.w3.org/Graphics/SVG/1.1/DTD/svg11.dtd'>
<svg clip-rule="evenodd" fill-rule="evenodd" stroke-linejoin="round" stroke-miterlimit="1.4142" version="1.1" viewBox="0 0 35 37" xml:space="preserve" xmlns="http://www.w3.org/2000/svg">
    <path d="m34.114 26.616c-1.689 3.157-4.277 5.743-7.438 7.432-3.16 1.688-6.752 2.403-10.319 2.054-3.568-0.349-6.952-1.747-9.724-4.016s-4.808-5.308-5.85-8.732-1.044-7.079-5e-3 -10.504c1.039-3.426 3.072-6.466 5.842-8.738 2.77-2.271 6.153-3.672 9.72-4.024 3.568-0.352 7.16 0.359 10.322 2.045l-2.146 4.013c-2.368-1.262-5.057-1.795-7.727-1.531s-5.203 1.312-7.276 3.013c-2.074 1.7-3.596 3.976-4.374 6.54-0.777 2.564-0.776 5.301 4e-3 7.864s2.304 4.838 4.379 6.536c2.075 1.699 4.609 2.745 7.279 3.006 2.671 0.262 5.359-0.273 7.725-1.537s4.304-3.2 5.568-5.563l4.02 2.142z" fill="#142756" fill-rule="nonzero"/>
    <g transform="translate(8.4375 9.094)">
        <path d="m9.063 18.453c5.005 0 9.062-4.05 9.062-9.047s-4.057-9.047-9.062-9.047c-5.006 0-9.063 4.05-9.063 9.047s4.057 9.047 9.063 9.047z" fill="#3064EB" fill-rule="nonzero"/>
    </g>
</svg>
