<?xml version="1.0" encoding="UTF-8"?>
<!DOCTYPE svg  PUBLIC '-//W3C//DTD SVG 1.1//EN'  'http://www.w3.org/Graphics/SVG/1.1/DTD/svg11.dtd'>
<svg clip-rule="evenodd" fill-rule="evenodd" stroke-linejoin="round" stroke-miterlimit="1.4142" version="1.1" viewBox="0 0 18 18" xml:space="preserve" xmlns="http://www.w3.org/2000/svg">
    <path d="m17.367 6.984c-0.08-0.25-0.229-0.473-0.428-0.644-0.2-0.171-0.443-0.284-0.703-0.326l-4.075-0.662-1.889-3.671c-0.12-0.233-0.303-0.429-0.527-0.566s-0.482-0.209-0.745-0.209-0.521 0.072-0.745 0.209-0.407 0.333-0.527 0.566l-1.889 3.671-4.075 0.662c-0.259 0.043-0.502 0.156-0.702 0.327-0.199 0.171-0.348 0.394-0.429 0.644-0.081 0.249-0.092 0.517-0.031 0.773 0.061 0.255 0.191 0.489 0.376 0.676l2.907 2.931-0.629 4.08c-0.041 0.26-8e-3 0.526 0.093 0.769s0.267 0.453 0.479 0.607c0.213 0.155 0.464 0.248 0.727 0.269 0.262 0.021 0.525-0.031 0.759-0.149l3.686-1.86 3.686 1.86c0.235 0.118 0.497 0.169 0.759 0.148 0.263-0.021 0.514-0.114 0.726-0.268 0.213-0.155 0.379-0.365 0.48-0.608 0.101-0.242 0.133-0.508 0.093-0.768l-0.629-4.08 2.907-2.931c0.186-0.186 0.316-0.42 0.377-0.676s0.05-0.524-0.032-0.774z" fill="#ff8e0a" fill-rule="nonzero"/>
</svg>
