<svg width="18" height="18" viewBox="0 0 18 18" fill="none" xmlns="http://www.w3.org/2000/svg">
<path d="M17.3672 6.98444C17.2865 6.73412 17.1381 6.51101 16.9385 6.33981C16.7389 6.1686 16.4957 6.05598 16.2361 6.0144L12.1611 5.35217L10.2721 1.68136C10.1518 1.44767 9.96941 1.25164 9.74501 1.11478C9.5206 0.97792 9.26283 0.905518 8.99998 0.905518C8.73713 0.905518 8.47937 0.97792 8.25496 1.11478C8.03055 1.25164 7.84818 1.44767 7.72785 1.68136L5.83884 5.35217L1.76398 6.0144C1.50455 6.05663 1.26177 6.1695 1.06227 6.34063C0.862761 6.51175 0.714249 6.73453 0.633024 6.98451C0.551799 7.23448 0.540998 7.50201 0.601809 7.75772C0.662619 8.01343 0.79269 8.24745 0.97775 8.4341L3.88517 11.365L3.25587 15.4451C3.21549 15.7049 3.24757 15.9709 3.34856 16.2137C3.44956 16.4566 3.61557 16.6668 3.82833 16.8214C4.04109 16.976 4.29236 17.0689 4.55451 17.0899C4.81666 17.1109 5.07953 17.0593 5.3142 16.9405L8.99998 15.0811L12.6859 16.9405C12.9206 17.059 13.1834 17.1105 13.4454 17.0894C13.7075 17.0683 13.9586 16.9753 14.1713 16.8208C14.384 16.6663 14.55 16.4561 14.651 16.2134C14.7521 15.9707 14.7843 15.7049 14.7442 15.4451L14.1149 11.365L17.0223 8.4341C17.208 8.24781 17.3384 8.01379 17.3993 7.75793C17.4602 7.50207 17.449 7.23436 17.3672 6.98444ZM16.2235 7.64186L12.9164 10.9757L13.6323 15.6167C13.6412 15.6722 13.6345 15.7292 13.613 15.7812C13.5915 15.8332 13.556 15.8783 13.5105 15.9114C13.4649 15.9444 13.4111 15.9643 13.355 15.9686C13.2989 15.973 13.2427 15.9618 13.1925 15.9362L8.99998 13.8211L4.80739 15.9362C4.75727 15.9619 4.70104 15.9731 4.64493 15.9687C4.58881 15.9643 4.53501 15.9445 4.48947 15.9114C4.44394 15.8783 4.40845 15.8333 4.38694 15.7813C4.36543 15.7293 4.35875 15.6723 4.36762 15.6167L5.08358 10.9757L1.77646 7.64182C1.73697 7.60192 1.70922 7.55192 1.69625 7.4973C1.68329 7.44268 1.68561 7.38554 1.70295 7.33215C1.7203 7.27875 1.75201 7.23116 1.7946 7.19459C1.8372 7.15802 1.88904 7.13388 1.94444 7.12481L6.57948 6.37156L8.72819 2.19615C8.75388 2.14621 8.79284 2.10431 8.84079 2.07506C8.88874 2.0458 8.94382 2.03032 8.99998 2.03032C9.05615 2.03032 9.11123 2.0458 9.15918 2.07506C9.20712 2.10431 9.24608 2.14621 9.27178 2.19615L11.4205 6.37156L16.0555 7.12481C16.1109 7.13388 16.1628 7.15802 16.2054 7.19459C16.248 7.23116 16.2797 7.27875 16.297 7.33215C16.3144 7.38554 16.3167 7.44268 16.3037 7.4973C16.2907 7.55192 16.263 7.60192 16.2235 7.64182L16.2235 7.64186Z" fill="#FF8E0A"/>
</svg>
