<svg width="60" height="60" viewBox="0 0 60 60" fill="none" xmlns="http://www.w3.org/2000/svg">
<rect y="-0.00012207" width="60" height="60" rx="10" fill="#3064EB"/>
<path d="M39.5833 14.9999C41.0199 14.9999 42.3977 15.5706 43.4135 16.5864C44.4293 17.6022 45 18.98 45 20.4165V31.8815C44.9996 32.8755 44.6045 33.8287 43.9017 34.5315L34.5333 43.9015C34.1851 44.2498 33.7717 44.526 33.3167 44.7144C32.8618 44.9029 32.3741 44.9999 31.8817 44.9999H20.4167C18.9801 44.9999 17.6023 44.4292 16.5865 43.4134C15.5707 42.3976 15 41.0198 15 39.5832V20.4165C15 18.98 15.5707 17.6022 16.5865 16.5864C17.6023 15.5706 18.9801 14.9999 20.4167 14.9999H39.5833ZM39.5833 17.4999H20.4167C19.6431 17.4999 18.9013 17.8072 18.3543 18.3541C17.8073 18.9011 17.5 19.643 17.5 20.4165V39.5832C17.5 41.1932 18.8067 42.4999 20.4167 42.4999H31.6667V37.0832C31.6666 35.6996 32.1959 34.3685 33.1461 33.3628C34.0963 32.3572 35.3953 31.7532 36.7767 31.6749L37.0833 31.6665H42.5V20.4165C42.5 19.643 42.1927 18.9011 41.6457 18.3541C41.0987 17.8072 40.3569 17.4999 39.5833 17.4999ZM40.7317 34.1665H37.0833C36.3511 34.1666 35.6456 34.4421 35.1072 34.9383C34.5687 35.4345 34.2365 36.1151 34.1767 36.8449L34.1667 37.0832V40.7315L40.7317 34.1665Z" fill="white"/>
</svg>
