<svg width="92" height="92" viewBox="0 0 92 92" fill="none" xmlns="http://www.w3.org/2000/svg">
<path d="M29.9999 49.5413H31.0696C33.7516 49.5413 35.956 47.4252 36.0654 44.7454L36.413 36.2385C36.413 32.159 39.0217 24 49.4565 24C59.8912 24 63.2246 30.3853 63.5869 33.578V45.6055C63.5869 48.3669 65.8255 50.6055 68.5869 50.6055H69.9999C72.7614 50.6055 74.9999 52.8441 74.9999 55.6055V77C74.9999 79.7614 72.7614 82 69.9999 82H29.9999C27.2385 82 24.9999 79.7614 24.9999 77V54.5413C24.9999 51.7799 27.2385 49.5413 29.9999 49.5413Z" fill="#B8C2E8"/>
<path d="M42 55.375V61.625M23.25 74.125H60.7499C62.4075 74.125 63.9972 73.4665 65.1693 72.2944C66.3414 71.1223 66.9999 69.5326 66.9999 67.875V49.125C66.9999 47.4674 66.3414 45.8777 65.1693 44.7056C63.9972 43.5335 62.4075 42.875 60.7499 42.875H23.25C21.5924 42.875 20.0027 43.5335 18.8306 44.7056C17.6585 45.8777 17 47.4674 17 49.125V67.875C17 69.5326 17.6585 71.1223 18.8306 72.2944C20.0027 73.4665 21.5924 74.125 23.25 74.125ZM54.4999 42.875V30.375C54.4999 27.0598 53.183 23.8804 50.8388 21.5362C48.4946 19.192 45.3152 17.8751 42 17.8751C38.6848 17.8751 35.5053 19.192 33.1611 21.5362C30.8169 23.8804 29.5 27.0598 29.5 30.375V42.875H54.4999Z" stroke="black" stroke-width="4" stroke-linecap="round" stroke-linejoin="round"/>
</svg>
