<svg width="169" height="342" viewBox="0 0 169 342" fill="none" xmlns="http://www.w3.org/2000/svg">
<path opacity="0.05" fill-rule="evenodd" clip-rule="evenodd" d="M76.2151 59.3168C97.3433 44.0698 109.208 17.0604 133.463 7.54571C158.15 -2.13804 186.737 -1.99285 212.006 6.05062C236.427 13.824 257.008 31.4672 272.574 51.8265C286.555 70.113 284.153 96.1245 295.973 115.876C308.329 136.523 332.63 147.739 342.972 169.463C355.263 195.282 366.575 224.23 360.895 252.255C355.126 280.717 335.863 306.592 311.865 322.948C288.376 338.957 258.174 340.97 229.755 341.634C204.875 342.214 181.82 332.233 157.591 326.548C134.702 321.179 108.74 323.378 90.2178 308.897C71.7672 294.473 63.7577 270.396 57.0607 247.954C51.0466 227.801 61.0748 205.362 53.4701 185.754C41.5248 154.953 -4.92972 135.709 0.919243 103.195C6.12776 74.2417 52.3599 76.5317 76.2151 59.3168Z" fill="#3064EB"/>
</svg>
