<svg width="16" height="16" viewBox="0 0 16 16" fill="none" xmlns="http://www.w3.org/2000/svg">
<path d="M10.0286 10.8786C8.90542 11.7759 7.48128 12.2091 6.04866 12.0892C4.61605 11.9693 3.28372 11.3055 2.3253 10.2339C1.36688 9.16241 0.85512 7.76457 0.895125 6.32751C0.93513 4.89044 1.52386 3.52324 2.54041 2.50669C3.55696 1.49014 4.92416 0.901408 6.36123 0.861403C7.79829 0.821398 9.19613 1.33316 10.2677 2.29158C11.3392 3.25 12.0031 4.58233 12.123 6.01494C12.2429 7.44755 11.8097 8.8717 10.9123 9.99489L15.7097 14.791C15.827 14.9083 15.8929 15.0675 15.8929 15.2335C15.8929 15.3994 15.827 15.5586 15.7097 15.6759C15.5923 15.7933 15.4331 15.8592 15.2672 15.8592C15.1012 15.8592 14.942 15.7933 14.8247 15.6759L10.0299 10.8786H10.0286ZM10.8923 6.48376C10.8923 5.90925 10.7792 5.34036 10.5593 4.80958C10.3395 4.2788 10.0172 3.79652 9.61097 3.39027C9.20472 2.98403 8.72244 2.66178 8.19166 2.44193C7.66088 2.22207 7.09199 2.10891 6.51748 2.10891C5.94297 2.10891 5.37408 2.22207 4.8433 2.44193C4.31252 2.66178 3.83024 2.98403 3.424 3.39027C3.01775 3.79652 2.6955 4.2788 2.47565 4.80958C2.25579 5.34036 2.14263 5.90925 2.14263 6.48376C2.14263 7.64404 2.60355 8.7568 3.424 9.57724C4.24444 10.3977 5.3572 10.8586 6.51748 10.8586C7.67776 10.8586 8.79052 10.3977 9.61097 9.57724C10.4314 8.7568 10.8923 7.64404 10.8923 6.48376Z" fill="#3A3A3A"/>
</svg>
