<svg width="60" height="60" viewBox="0 0 60 60" fill="none" xmlns="http://www.w3.org/2000/svg">
<rect x="3.05176e-05" y="-0.00012207" width="60" height="60" rx="10" fill="#3064EB"/>
<path d="M38.75 39.9999C34.25 39.9999 32.4625 34.7799 30.7338 29.7324C29.0963 24.9474 27.4 19.9999 23.75 19.9999C22.8978 20.05 22.0797 20.3527 21.4001 20.8694C20.7205 21.386 20.21 22.0933 19.9338 22.9011L17.5625 22.1049C17.6263 21.9174 19.1513 17.4999 23.75 17.4999C29.1875 17.4999 31.265 23.5686 33.1 28.9224C34.6113 33.3336 36.0375 37.4999 38.75 37.4999C39.6023 37.4498 40.4203 37.1471 41.1 36.6304C41.7796 36.1137 42.29 35.4064 42.5663 34.5986L44.9363 35.3949C44.8738 35.5824 43.3488 39.9999 38.75 39.9999Z" fill="white"/>
<path d="M15 44.9999V31.2499H17.5V28.7499H15V12.4999H12.5V44.9999C12.5 45.6629 12.7634 46.2988 13.2323 46.7676C13.7011 47.2365 14.337 47.4999 15 47.4999H47.5V44.9999H15Z" fill="white"/>
<path d="M20 28.7499H22.5V31.2499H20V28.7499Z" fill="white"/>
<path d="M25 28.7499H27.5V31.2499H25V28.7499Z" fill="white"/>
<path d="M35 28.7499H37.5V31.2499H35V28.7499Z" fill="white"/>
<path d="M40 28.7499H42.5V31.2499H40V28.7499Z" fill="white"/>
<path d="M45 28.7499H47.5V31.2499H45V28.7499Z" fill="white"/>
</svg>
