<svg width="92" height="92" viewBox="0 0 92 92" fill="none" xmlns="http://www.w3.org/2000/svg">
<path d="M48.5 30C24.793 31.5805 21.2511 50.2037 22.4533 59.6538C22.4831 59.8885 22.5 60.1187 22.5 60.3553L22.5 72C22.5 74.7614 24.7386 77 27.5 77H72C74.7614 77 77 74.7614 77 72V59.5C77.5 49 72.5 28.4 48.5 30Z" fill="#B8C2E8"/>
<path d="M69 46V64.9C69.0001 66.966 68.2107 68.9541 66.7933 70.4573C65.3759 71.9605 63.4377 72.8653 61.3752 72.9865L60.9 73H52.8C52.1387 72.9999 51.5004 72.7571 51.0062 72.3176C50.512 71.8782 50.1963 71.2726 50.1189 70.6159L50.1 70.3V54.1C50.1001 53.4387 50.3429 52.8004 50.7823 52.3062C51.2218 51.812 51.8273 51.4963 52.4841 51.4189L52.8 51.4H64.95V46C64.95 39.9133 62.532 34.0759 58.2281 29.7719C53.9241 25.4679 48.0867 23.05 42 23.05C35.9133 23.05 30.0759 25.4679 25.7719 29.7719C21.4679 34.0759 19.05 39.9133 19.05 46V51.4H31.2C31.9161 51.4 32.6028 51.6844 33.1092 52.1908C33.6155 52.6971 33.9 53.3839 33.9 54.1V70.3C33.9 71.0161 33.6155 71.7028 33.1092 72.2092C32.6028 72.7155 31.9161 73 31.2 73H23.1C20.9517 73 18.8915 72.1466 17.3724 70.6275C15.8534 69.1085 15 67.0482 15 64.9V46C15 31.0879 27.0879 19 42 19C56.9121 19 69 31.0879 69 46V64.9V46ZM29.85 55.45H19.05V64.9C19.05 65.9741 19.4767 67.0042 20.2362 67.7638C20.9957 68.5233 22.0259 68.95 23.1 68.95H29.85V55.45ZM64.95 55.45H54.15V68.95H60.9C61.9063 68.95 62.8767 68.5753 63.6219 67.899C64.3671 67.2227 64.8338 66.2931 64.9311 65.2915L64.95 64.9V55.45Z" fill="black"/>
</svg>
