<svg width="92" height="92" viewBox="0 0 92 92" fill="none" xmlns="http://www.w3.org/2000/svg">
<path d="M27 71V37C27 34.2386 29.2386 32 32 32H68C70.7614 32 73 34.2386 73 37V71C73 73.7614 70.7614 76 68 76H32C29.2386 76 27 73.7614 27 71Z" fill="#B8C2E8"/>
<path d="M21.4 38.8C22.0365 38.8 22.647 38.5471 23.0971 38.0971C23.5471 37.647 23.8 37.0365 23.8 36.4V29.2C23.8 28.5635 24.0529 27.953 24.5029 27.5029C24.953 27.0529 25.5635 26.8 26.2 26.8H33.4C34.0365 26.8 34.647 26.5471 35.0971 26.0971C35.5471 25.647 35.8 25.0365 35.8 24.4C35.8 23.7635 35.5471 23.153 35.0971 22.7029C34.647 22.2529 34.0365 22 33.4 22H26.2C24.2904 22 22.4591 22.7586 21.1088 24.1088C19.7586 25.4591 19 27.2904 19 29.2V36.4C19 37.0365 19.2529 37.647 19.7029 38.0971C20.153 38.5471 20.7635 38.8 21.4 38.8ZM33.4 65.2H26.2C25.5635 65.2 24.953 64.9471 24.5029 64.4971C24.0529 64.047 23.8 63.4365 23.8 62.8V55.6C23.8 54.9635 23.5471 54.353 23.0971 53.9029C22.647 53.4529 22.0365 53.2 21.4 53.2C20.7635 53.2 20.153 53.4529 19.7029 53.9029C19.2529 54.353 19 54.9635 19 55.6V62.8C19 64.7096 19.7586 66.5409 21.1088 67.8912C22.4591 69.2414 24.2904 70 26.2 70H33.4C34.0365 70 34.647 69.7471 35.0971 69.2971C35.5471 68.847 35.8 68.2365 35.8 67.6C35.8 66.9635 35.5471 66.353 35.0971 65.9029C34.647 65.4529 34.0365 65.2 33.4 65.2ZM55 48.4C55.6365 48.4 56.247 48.1471 56.6971 47.6971C57.1471 47.247 57.4 46.6365 57.4 46C57.4 45.3635 57.1471 44.753 56.6971 44.3029C56.247 43.8529 55.6365 43.6 55 43.6H52.264C51.8331 41.9491 50.9699 40.443 49.7635 39.2365C48.557 38.0301 47.0509 37.1669 45.4 36.736V34C45.4 33.3635 45.1471 32.753 44.6971 32.3029C44.247 31.8529 43.6365 31.6 43 31.6C42.3635 31.6 41.753 31.8529 41.3029 32.3029C40.8529 32.753 40.6 33.3635 40.6 34V36.736C38.9491 37.1669 37.443 38.0301 36.2365 39.2365C35.0301 40.443 34.1669 41.9491 33.736 43.6H31C30.3635 43.6 29.753 43.8529 29.3029 44.3029C28.8529 44.753 28.6 45.3635 28.6 46C28.6 46.6365 28.8529 47.247 29.3029 47.6971C29.753 48.1471 30.3635 48.4 31 48.4H33.736C34.1669 50.0509 35.0301 51.557 36.2365 52.7635C37.443 53.9699 38.9491 54.8331 40.6 55.264V58C40.6 58.6365 40.8529 59.247 41.3029 59.6971C41.753 60.1471 42.3635 60.4 43 60.4C43.6365 60.4 44.247 60.1471 44.6971 59.6971C45.1471 59.247 45.4 58.6365 45.4 58V55.264C47.0509 54.8331 48.557 53.9699 49.7635 52.7635C50.9699 51.557 51.8331 50.0509 52.264 48.4H55ZM43 50.8C42.0506 50.8 41.1226 50.5185 40.3333 49.9911C39.5439 49.4636 38.9287 48.714 38.5654 47.8369C38.2021 46.9598 38.107 45.9947 38.2922 45.0636C38.4774 44.1325 38.9346 43.2772 39.6059 42.6059C40.2772 41.9346 41.1325 41.4774 42.0636 41.2922C42.9947 41.107 43.9598 41.2021 44.8369 41.5654C45.714 41.9287 46.4636 42.5439 46.9911 43.3333C47.5185 44.1226 47.8 45.0506 47.8 46C47.8 47.273 47.2943 48.4939 46.3941 49.3941C45.4939 50.2943 44.273 50.8 43 50.8ZM64.6 53.2C63.9635 53.2 63.353 53.4529 62.9029 53.9029C62.4529 54.353 62.2 54.9635 62.2 55.6V62.8C62.2 63.4365 61.9471 64.047 61.4971 64.4971C61.047 64.9471 60.4365 65.2 59.8 65.2H52.6C51.9635 65.2 51.353 65.4529 50.9029 65.9029C50.4529 66.353 50.2 66.9635 50.2 67.6C50.2 68.2365 50.4529 68.847 50.9029 69.2971C51.353 69.7471 51.9635 70 52.6 70H59.8C61.7096 70 63.5409 69.2414 64.8912 67.8912C66.2414 66.5409 67 64.7096 67 62.8V55.6C67 54.9635 66.7471 54.353 66.2971 53.9029C65.847 53.4529 65.2365 53.2 64.6 53.2ZM59.8 22H52.6C51.9635 22 51.353 22.2529 50.9029 22.7029C50.4529 23.153 50.2 23.7635 50.2 24.4C50.2 25.0365 50.4529 25.647 50.9029 26.0971C51.353 26.5471 51.9635 26.8 52.6 26.8H59.8C60.4365 26.8 61.047 27.0529 61.4971 27.5029C61.9471 27.953 62.2 28.5635 62.2 29.2V36.4C62.2 37.0365 62.4529 37.647 62.9029 38.0971C63.353 38.5471 63.9635 38.8 64.6 38.8C65.2365 38.8 65.847 38.5471 66.2971 38.0971C66.7471 37.647 67 37.0365 67 36.4V29.2C67 27.2904 66.2414 25.4591 64.8912 24.1088C63.5409 22.7586 61.7096 22 59.8 22Z" fill="black"/>
</svg>
