<svg width="30" height="30" viewBox="0 0 30 30" fill="none" xmlns="http://www.w3.org/2000/svg">
<rect width="30" height="30" rx="5" fill="#3064EB"/>
<rect x="7" y="7" width="17" height="17" rx="5" fill="#3064EB"/>
<path d="M23.7471 10.497C23.1557 10.759 22.5203 10.9361 21.8523 11.0162C22.5415 10.6038 23.0572 9.9547 23.303 9.19008C22.6555 9.5747 21.9468 9.84543 21.2077 9.9905C20.7108 9.45986 20.0525 9.10814 19.3351 8.98996C18.6178 8.87177 17.8815 8.99372 17.2405 9.33688C16.5996 9.68004 16.0899 10.2252 15.7905 10.8877C15.4912 11.5503 15.4189 12.2931 15.585 13.0009C14.2729 12.935 12.9894 12.594 11.8177 12C10.6459 11.4059 9.61221 10.5722 8.78357 9.55275C8.50024 10.0415 8.33732 10.6082 8.33732 11.2117C8.33701 11.755 8.47079 12.2899 8.72682 12.7691C8.98284 13.2483 9.35319 13.6569 9.80499 13.9586C9.28102 13.9419 8.76861 13.8003 8.3104 13.5456V13.5881C8.31035 14.3501 8.57393 15.0886 9.05641 15.6784C9.53889 16.2682 10.2106 16.6729 10.9574 16.8238C10.4714 16.9553 9.96177 16.9747 9.46711 16.8805C9.67784 17.5361 10.0883 18.1094 10.6411 18.5202C11.1938 18.931 11.8612 19.1586 12.5498 19.1712C11.3809 20.0888 9.93737 20.5865 8.45136 20.5843C8.18813 20.5844 7.92513 20.569 7.6637 20.5383C9.17208 21.5081 10.9279 22.0228 12.7212 22.0208C18.7916 22.0208 22.1102 16.9931 22.1102 12.6326C22.1102 12.4909 22.1066 12.3478 22.1002 12.2062C22.7457 11.7394 23.3029 11.1613 23.7457 10.4991L23.7471 10.497Z" fill="white"/>
</svg>
