<svg width="80" height="80" viewBox="0 0 80 80" fill="none" xmlns="http://www.w3.org/2000/svg">
<g opacity="0.1">
<path d="M77.7519 45.7478C77.2218 46.146 76.5552 46.3173 75.8987 46.224C75.2423 46.1307 74.6498 45.7805 74.2516 45.2503C72.7444 43.2249 70.7828 41.5815 68.5246 40.4525C66.2664 39.3235 63.7747 38.7404 61.25 38.75C60.587 38.75 59.9511 38.4866 59.4823 38.0178C59.0134 37.5489 58.75 36.913 58.75 36.25C58.75 35.587 59.0134 34.9511 59.4823 34.4822C59.9511 34.0134 60.587 33.75 61.25 33.75C62.6729 33.7496 64.0664 33.3445 65.2677 32.5819C66.4689 31.8193 67.4285 30.7307 68.0343 29.4432C68.6402 28.1557 68.8672 26.7225 68.689 25.3108C68.5108 23.8991 67.9347 22.5672 67.028 21.4706C66.1213 20.3741 64.9213 19.5581 63.5682 19.1179C62.2151 18.6777 60.7647 18.6315 59.3863 18.9848C58.0079 19.338 56.7585 20.076 55.7838 21.1127C54.8092 22.1493 54.1495 23.4419 53.8819 24.8394C53.7582 25.4908 53.3807 26.0663 52.8326 26.4394C52.2845 26.8126 51.6107 26.9527 50.9593 26.8289C50.3079 26.7052 49.7323 26.3277 49.3592 25.7796C48.9861 25.2315 48.846 24.5577 48.9697 23.9063C49.3396 21.9608 50.1665 20.131 51.3822 18.5678C52.5978 17.0045 54.1675 15.7524 55.9619 14.9147C57.7563 14.077 59.7241 13.6776 61.7031 13.7494C63.6821 13.8212 65.6158 14.3622 67.3447 15.3278C69.0737 16.2934 70.5485 17.656 71.6476 19.3033C72.7467 20.9506 73.4388 22.8355 73.6667 24.8026C73.8946 26.7698 73.6518 28.7629 72.9584 30.6179C72.2651 32.4729 71.1409 34.1365 69.6785 35.4719C73.0784 36.9424 76.0335 39.2785 78.2491 42.2472C78.4464 42.5097 78.59 42.8084 78.6717 43.1264C78.7535 43.4444 78.7719 43.7754 78.7257 44.1004C78.6796 44.4255 78.5699 44.7383 78.4028 45.0209C78.2358 45.3036 78.0147 45.5506 77.7522 45.7478H77.7519ZM60.2363 66.4044C60.3834 66.6999 60.4705 67.0215 60.4927 67.3509C60.5148 67.6802 60.4715 68.0106 60.3653 68.3231C60.259 68.6356 60.092 68.924 59.8737 69.1716C59.6555 69.4192 59.3903 69.6212 59.0936 69.7658C58.7969 69.9104 58.4745 69.9948 58.145 70.0142C57.8155 70.0336 57.4855 69.9875 57.1739 69.8787C56.8623 69.7698 56.5753 69.6004 56.3295 69.38C56.0838 69.1597 55.884 68.8929 55.7419 68.595C54.305 65.6431 52.0671 63.1547 49.2835 61.4138C46.5 59.673 43.2831 58.7499 40 58.7499C36.717 58.7499 33.5001 59.673 30.7166 61.4138C27.933 63.1547 25.6951 65.6431 24.2582 68.595C23.9677 69.191 23.4523 69.6473 22.8254 69.8633C22.1986 70.0794 21.5115 70.0375 20.9155 69.747C20.3195 69.4565 19.8633 68.9412 19.6472 68.3143C19.4312 67.6874 19.473 67.0004 19.7635 66.4044C22.0766 61.6132 26.0198 57.8019 30.8869 55.6531C28.3959 53.7478 26.5648 51.1096 25.651 48.1096C24.7371 45.1096 24.7866 41.8986 25.7924 38.9281C26.7982 35.9577 28.7097 33.3772 31.2582 31.5495C33.8067 29.7218 36.8639 28.7388 40 28.7388C43.1362 28.7388 46.1934 29.7218 48.7419 31.5495C51.2904 33.3772 53.2019 35.9577 54.2077 38.9281C55.2135 41.8986 55.263 45.1096 54.3491 48.1096C53.4353 51.1096 51.6042 53.7478 49.1132 55.6531C53.9803 57.8019 57.9235 61.6132 60.2366 66.4044H60.2363ZM40 53.75C41.9779 53.75 43.9113 53.1635 45.5557 52.0647C47.2002 50.9659 48.482 49.4041 49.2388 47.5768C49.9957 45.7496 50.1938 43.7389 49.8079 41.7991C49.422 39.8593 48.4696 38.0775 47.0711 36.6789C45.6726 35.2804 43.8908 34.328 41.951 33.9422C40.0111 33.5563 38.0005 33.7543 36.1732 34.5112C34.3459 35.2681 32.7842 36.5498 31.6853 38.1943C30.5865 39.8388 30 41.7722 30 43.75C30.003 46.4013 31.0575 48.9431 32.9323 50.8178C34.807 52.6925 37.3488 53.747 40 53.75ZM21.25 36.25C21.25 35.587 20.9867 34.9511 20.5178 34.4822C20.049 34.0134 19.4131 33.75 18.75 33.75C17.3272 33.7496 15.9337 33.3445 14.7325 32.5819C13.5312 31.8193 12.5716 30.7307 11.9658 29.4433C11.36 28.1558 11.1329 26.7225 11.3111 25.3109C11.4893 23.8992 12.0654 22.5673 12.9721 21.4707C13.8788 20.3742 15.0787 19.5581 16.4318 19.1179C17.7849 18.6777 19.2353 18.6315 20.6136 18.9847C21.992 19.3379 23.2414 20.0758 24.2161 21.1125C25.1908 22.1491 25.8505 23.4416 26.1182 24.8391C26.2484 25.4841 26.6277 26.0517 27.1738 26.4189C27.7199 26.7861 28.3887 26.9231 29.0351 26.8004C29.6816 26.6776 30.2536 26.3049 30.6271 25.7631C31.0005 25.2213 31.1453 24.5541 31.03 23.9063C30.6602 21.9607 29.8334 20.1308 28.6178 18.5675C27.4021 17.0041 25.8324 15.7519 24.038 14.9141C22.2435 14.0763 20.2757 13.6769 18.2966 13.7487C16.3175 13.8205 14.3838 14.3616 12.6548 15.3272C10.9258 16.2929 9.45096 17.6555 8.35183 19.3029C7.25271 20.9503 6.56073 22.8353 6.33291 24.8025C6.10509 26.7698 6.34795 28.763 7.04148 30.618C7.73502 32.473 8.85937 34.1366 10.3219 35.4719C6.92164 36.9424 3.96631 39.2787 1.75067 42.2478C1.55348 42.5103 1.40993 42.8091 1.3282 43.1271C1.24648 43.445 1.22819 43.776 1.27437 44.1011C1.36764 44.7575 1.71787 45.35 2.24801 45.7483C2.77816 46.1465 3.44478 46.3179 4.10125 46.2246C4.75772 46.1313 5.35024 45.7811 5.74848 45.2509C7.25558 43.2253 9.21716 41.5818 11.4754 40.4527C13.7336 39.3236 16.2253 38.7404 18.75 38.75C19.4131 38.75 20.049 38.4866 20.5178 38.0178C20.9867 37.5489 21.25 36.913 21.25 36.25Z" fill="#3064EB"/>
</g>
</svg>
