<svg width="100" height="192" viewBox="0 0 100 192" fill="none" xmlns="http://www.w3.org/2000/svg">
<path opacity="0.1" fill-rule="evenodd" clip-rule="evenodd" d="M-60.9527 33.2482C-49.1226 24.711 -42.4796 9.58789 -28.8982 4.26041C-15.0756 -1.16173 0.931097 -1.08044 15.0797 3.42327C28.7533 7.77577 40.2772 17.6546 48.9928 29.0542C56.821 39.2932 55.4761 53.8576 62.0946 64.9171C69.0126 76.4773 82.6197 82.7574 88.4103 94.9216C95.2922 109.378 101.626 125.587 98.4455 141.278C95.2155 157.215 84.4296 171.703 70.9928 180.861C57.8407 189.825 40.9298 190.952 25.0178 191.323C11.087 191.649 -1.82233 186.06 -15.3886 182.877C-28.2046 179.87 -42.7415 181.102 -53.1123 172.994C-63.4432 164.917 -67.9279 151.436 -71.6777 138.87C-75.0451 127.586 -69.4301 115.022 -73.6882 104.043C-80.3766 86.7971 -106.387 76.0217 -103.113 57.8166C-100.196 41.6049 -74.3098 42.8872 -60.9527 33.2482Z" fill="white"/>
</svg>
