<svg width="89" height="301" viewBox="0 0 89 301" fill="none" xmlns="http://www.w3.org/2000/svg">
<path opacity="0.1" fill-rule="evenodd" clip-rule="evenodd" d="M86.956 264.968C69.0648 256.288 46.6223 258.09 31.451 245.235C16.0103 232.151 5.76254 212.889 2.02293 192.998C-1.59112 173.776 2.81623 153.561 10.8638 135.734C18.092 119.722 36.4397 111.923 45.4345 96.8325C54.8365 81.0587 53.5787 60.6702 64.4342 45.8591C77.3354 28.2569 92.6934 10.1803 113.58 3.85513C134.793 -2.56885 159.151 1.01151 178.826 11.2179C198.084 21.2081 210.366 40.7741 221.096 59.6298C230.49 76.1378 232.126 95.2423 237.075 113.58C241.749 130.904 252.622 147.553 249.595 165.239C246.579 182.857 233.3 196.952 220.643 209.574C209.277 220.908 190.571 222.29 180.147 234.496C163.773 253.669 167.653 291.848 143.689 299.684C122.348 306.662 107.157 274.767 86.956 264.968Z" fill="white"/>
</svg>
